<svg xmlns="http://www.w3.org/2000/svg" xmlns:xlink="http://www.w3.org/1999/xlink" preserveAspectRatio="xMidYMid" width="80" height="32" viewBox="0 0 80 32">
  <defs>
    <style>
      .cls-1 {
        fill: #fff;
        fill-rule: evenodd;
      }
    </style>
  </defs>
  <path d="M77.371,21.471 C78.463,23.065 79.338,24.487 79.997,25.735 L74.620,25.735 C74.437,25.398 74.211,24.978 73.942,24.474 C73.674,23.969 73.372,23.442 73.036,22.894 C72.699,22.344 72.348,21.880 71.982,21.499 C71.616,21.117 71.256,20.770 70.901,20.460 C70.562,20.750 70.217,21.070 69.867,21.421 C69.516,21.771 69.183,22.210 68.868,22.735 C68.552,23.261 68.242,23.781 67.939,24.295 C67.635,24.808 67.365,25.289 67.129,25.735 L62.028,25.735 C62.311,25.184 62.683,24.524 63.145,23.757 C63.607,22.990 64.115,22.197 64.667,21.382 C65.218,20.567 65.815,19.774 66.458,19.005 C67.100,18.236 67.730,17.514 68.348,16.838 C67.247,15.278 66.191,13.778 65.175,12.337 C64.159,10.898 63.156,9.473 62.163,8.066 L67.580,8.066 L71.062,13.019 L74.580,8.066 L79.761,8.066 L73.619,16.659 C75.027,18.272 76.277,19.876 77.371,21.471 ZM61.590,20.679 C61.185,21.833 60.603,22.819 59.839,23.635 C59.076,24.452 58.163,25.085 57.098,25.533 C56.032,25.981 54.837,26.205 53.514,26.205 C52.213,26.205 51.029,25.981 49.963,25.533 C48.898,25.085 47.984,24.452 47.222,23.635 C46.459,22.819 45.863,21.833 45.437,20.679 C45.011,19.526 44.798,18.256 44.798,16.866 C44.798,15.478 45.017,14.213 45.455,13.071 C45.892,11.929 46.498,10.955 47.272,10.149 C48.046,9.343 48.965,8.716 50.031,8.268 C51.096,7.820 52.257,7.595 53.514,7.595 C54.792,7.595 55.965,7.820 57.030,8.268 C58.095,8.716 59.009,9.343 59.772,10.149 C60.534,10.955 61.130,11.929 61.555,13.071 C61.981,14.213 62.196,15.478 62.196,16.866 C62.196,18.256 61.994,19.526 61.590,20.679 ZM56.155,13.222 C55.537,12.338 54.658,11.895 53.514,11.895 C52.370,11.895 51.483,12.338 50.856,13.222 C50.227,14.107 49.913,15.322 49.913,16.866 C49.913,18.412 50.227,19.638 50.856,20.544 C51.483,21.452 52.370,21.906 53.514,21.906 C54.658,21.906 55.537,21.452 56.155,20.544 C56.772,19.638 57.080,18.412 57.080,16.866 C57.080,15.322 56.772,14.107 56.155,13.222 ZM37.498,16.363 C37.498,14.751 37.283,13.609 36.857,12.937 C36.431,12.265 35.636,11.929 34.468,11.929 C34.110,11.929 33.728,11.946 33.323,11.979 C32.922,12.012 32.562,12.053 32.248,12.097 L32.248,25.735 L27.234,25.735 L27.234,8.671 C28.086,8.425 29.187,8.195 30.533,7.983 C31.879,7.769 33.291,7.663 34.771,7.663 C36.275,7.663 37.526,7.860 38.522,8.252 C39.522,8.643 40.311,9.197 40.895,9.915 C41.479,10.630 41.895,11.481 42.140,12.467 C42.386,13.452 42.512,14.549 42.512,15.758 L42.512,25.735 L37.498,25.735 L37.498,16.363 ZM19.091,16.363 C19.091,14.751 18.878,13.609 18.453,12.937 C18.026,12.265 17.229,11.929 16.063,11.929 C15.704,11.929 15.323,11.946 14.919,11.979 C14.515,12.012 14.156,12.053 13.842,12.097 L13.842,25.735 L8.829,25.735 L8.829,8.671 C9.681,8.425 10.780,8.195 12.126,7.983 C13.472,7.769 14.885,7.663 16.366,7.663 C17.869,7.663 19.119,7.860 20.118,8.252 C21.115,8.643 21.907,9.197 22.490,9.915 C23.073,10.630 23.488,11.481 23.735,12.467 C23.982,13.452 24.105,14.549 24.105,15.758 L24.105,25.735 L19.091,25.735 L19.091,16.363 ZM3.007,5.917 C2.200,5.917 1.499,5.654 0.904,5.126 C0.310,4.601 0.013,3.879 0.013,2.960 C0.013,2.042 0.310,1.321 0.904,0.794 C1.499,0.269 2.200,0.005 3.007,0.005 C3.815,0.005 4.516,0.269 5.111,0.794 C5.705,1.321 6.002,2.042 6.002,2.960 C6.002,3.879 5.705,4.601 5.111,5.126 C4.516,5.654 3.815,5.917 3.007,5.917 ZM5.531,25.735 L0.518,25.735 L0.518,8.066 L5.531,8.066 L5.531,25.735 ZM46.665,28.173 L60.377,28.173 C60.911,28.173 61.344,28.606 61.344,29.138 L61.344,31.031 C61.344,31.564 60.911,31.996 60.377,31.996 L46.665,31.996 C46.131,31.996 45.699,31.564 45.699,31.031 L45.699,29.138 C45.699,28.606 46.131,28.173 46.665,28.173 Z" class="cls-1"/>
</svg>
